<svg width="24" height="23" viewBox="0 0 24 23" fill="none"
    xmlns="http://www.w3.org/2000/svg">
    <path d="M19.2726 20.5906C19.7747 20.5906 20.1817 20.1836 20.1817 19.6816C20.1817 19.1795 19.7747 18.7725 19.2726 18.7725C18.7705 18.7725 18.3635 19.1795 18.3635 19.6816C18.3635 20.1836 18.7705 20.5906 19.2726 20.5906Z" stroke="currentColor" stroke-width="3" stroke-linecap="round" stroke-linejoin="round"/>
    <path d="M9.27262 20.5906C9.77469 20.5906 10.1817 20.1836 10.1817 19.6816C10.1817 19.1795 9.77469 18.7725 9.27262 18.7725C8.77054 18.7725 8.36353 19.1795 8.36353 19.6816C8.36353 20.1836 8.77054 20.5906 9.27262 20.5906Z" stroke="currentColor" stroke-width="3" stroke-linecap="round" stroke-linejoin="round"/>
    <path d="M2 1.5H5.63636L8.07273 13.6727C8.15586 14.0913 8.38355 14.4672 8.71595 14.7348C9.04835 15.0024 9.46427 15.1445 9.89091 15.1364H18.7273C19.1539 15.1445 19.5698 15.0024 19.9022 14.7348C20.2346 14.4672 20.4623 14.0913 20.5455 13.6727L22 6.04545H6.54545" stroke="currentColor" stroke-width="3" stroke-linecap="round" stroke-linejoin="round"/>
</svg>
