<svg width="25" height="23" viewBox="0 0 25 23" fill="none"
    xmlns="http://www.w3.org/2000/svg">
    <path d="M22.9994 16.2252V19.0854C23.0005 19.3509 22.9403 19.6138 22.8225 19.8571C22.7047 20.1004 22.5319 20.3188 22.3152 20.4983C22.0985 20.6778 21.8427 20.8144 21.5642 20.8995C21.2856 20.9846 20.9904 21.0162 20.6975 20.9923C17.4484 20.6735 14.3275 19.671 11.5853 18.0653C9.03418 16.6014 6.87123 14.6484 5.2501 12.3447C3.46565 9.85744 2.35515 7.02557 2.00857 4.07855C1.98218 3.8149 2.01689 3.54917 2.11046 3.2983C2.20404 3.04742 2.35444 2.81688 2.5521 2.62136C2.74975 2.42585 2.99033 2.26963 3.2585 2.16267C3.52668 2.05571 3.81659 2.00034 4.10976 2.00009H7.27738C7.78981 1.99554 8.28658 2.15939 8.67511 2.4611C9.06364 2.76282 9.31741 3.18181 9.38913 3.63998C9.52283 4.55533 9.77078 5.45408 10.1282 6.31909C10.2703 6.66035 10.301 7.03122 10.2168 7.38777C10.1326 7.74431 9.93699 8.07159 9.6531 8.33082L8.31214 9.54166C9.81524 11.9286 12.004 13.9049 14.6474 15.2622L15.9883 14.0513C16.2754 13.795 16.6379 13.6184 17.0327 13.5423C17.4276 13.4663 17.8383 13.494 18.2162 13.6223C19.1742 13.9451 20.1695 14.169 21.1832 14.2897C21.6962 14.355 22.1646 14.5883 22.4994 14.9452C22.8343 15.302 23.0122 15.7576 22.9994 16.2252Z" stroke="currentColor" stroke-width="3" stroke-linecap="round" stroke-linejoin="round"/>
</svg>
